# xmcd
# Track frame offsets:
# 150
# 16701
# 36103
# 55561
# 70932
# 88824
# 108158
# 124741
# 140446
# 154382
# 169728
# 189776
# 204578
#
# Disc length: 2965 seconds
# Revision: 0
# Processed by: cddbd v1.5PL3 Copyright (c) Steve Scherf et al.
# Submitted via: VisiTrax 2.9.5.181 - For more info visit www.synapsa.com
#
DISCID=a50b930d
DTITLE=Marcel - You, Me and the Windshield
DYEAR=2003
DGENRE=
TTITLE0=Country Rock Star
TTITLE1=Tennessee
TTITLE2=Annie Devine
TTITLE3=Missing You
TTITLE4=The Working Day
TTITLE5=I Won't Hold You Down
TTITLE6=Take It
TTITLE7=Nothin' to Lose
TTITLE8=You, Me and the Windshield
TTITLE9=Shadow
TTITLE10=Holding on to Letting Go
TTITLE11=Perfect Situation
TTITLE12=This Old Diesel
EXTD=Mercury 088 170 303-2 c. 2003 Enchanced CD.
EXTT0=
EXTT1=
EXTT2=
EXTT3=
EXTT4=
EXTT5=
EXTT6=
EXTT7=
EXTT8=
EXTT9=
EXTT10=
EXTT11=
EXTT12=
PLAYORDER=
